<?xml version="1.0" encoding="utf-8"?>
<!-- Generator: Adobe Illustrator 27.0.0, SVG Export Plug-In . SVG Version: 6.00 Build 0)  -->
<svg version="1.1" id="Layer_1" xmlns="http://www.w3.org/2000/svg" xmlns:xlink="http://www.w3.org/1999/xlink" x="0px" y="0px"
	 viewBox="0 0 100 100" style="enable-background:new 0 0 100 100;" xml:space="preserve">
<style type="text/css">
	.st0{fill:#000616;}
</style>
<g id="App_x5F_Store_00000036213939088023279550000018378210949350198700_">
	<g>
		<g id="_2912255711360_00000085946080542063628430000012661091479334614703_">
			<path class="st0" d="M81.4,46.8c0,2.2-0.5,4.3-1.6,6.2c-1.1,1.9-2.5,3.4-4.3,4.4c0,0.3,0.1,0.9,0.1,1.6c0,3.4-1.1,6.2-3.4,8.6
				C70,69.8,67.3,71,64.1,71c-1.4,0-2.8-0.3-4-0.8c-1,2-2.4,3.7-4.3,4.9C54,76.4,51.9,77,49.7,77c-2.3,0-4.3-0.6-6.2-1.8
				c-1.8-1.2-3.3-2.9-4.2-5c-1.3,0.5-2.6,0.8-4,0.8c-3.2,0-5.9-1.2-8.1-3.5c-2.3-2.4-3.4-5.2-3.4-8.6c0-0.4,0-0.9,0.1-1.6
				c-1.8-1-3.2-2.5-4.3-4.4C18.5,51.1,18,49,18,46.8c0-2.4,0.6-4.5,1.8-6.5c1.2-2,2.8-3.4,4.7-4.3c-0.5-1.4-0.8-2.8-0.8-4.2
				c0-3.3,1.1-6.2,3.4-8.6c2.3-2.4,5-3.5,8.1-3.5c1.4,0,2.8,0.3,4,0.8c1-2,2.4-3.7,4.3-4.9c1.9-1.2,3.9-1.9,6.1-1.9
				c2.2,0,4.3,0.6,6.1,1.9c1.9,1.3,3.3,2.9,4.3,4.9c1.3-0.5,2.6-0.8,4-0.8c3.2,0,5.9,1.2,8.1,3.5c2.2,2.4,3.4,5.2,3.4,8.6
				c0,1.6-0.2,3-0.7,4.2c2,0.9,3.6,2.4,4.7,4.3C80.8,42.3,81.4,44.4,81.4,46.8L81.4,46.8L81.4,46.8z M48.4,56.3l13.1-19.6
				c0.3-0.5,0.4-1.1,0.3-1.7c-0.1-0.6-0.4-1.1-1-1.4c-0.5-0.3-1.1-0.4-1.7-0.4c-0.6,0.1-1.1,0.4-1.5,0.9L46.1,51.5l-5.3-5.3
				c-0.5-0.5-1-0.7-1.6-0.7c-0.6,0-1.2,0.2-1.6,0.7c-0.4,0.4-0.6,1-0.6,1.6c0,0.6,0.2,1.2,0.6,1.6l7.3,7.3l0.4,0.3
				c0.4,0.3,0.9,0.4,1.3,0.4C47.3,57.4,47.9,57,48.4,56.3L48.4,56.3L48.4,56.3z"/>
		</g>
	</g>
</g>
</svg>
